<?xml version="1.0" encoding="utf-8"?>
<!-- Generator: Adobe Illustrator 22.0.1, SVG Export Plug-In . SVG Version: 6.00 Build 0)  -->
<svg version="1.1" id="Layer_1" xmlns="http://www.w3.org/2000/svg" xmlns:xlink="http://www.w3.org/1999/xlink" x="0px" y="0px"
	 viewBox="0 0 42.6 40" style="enable-background:new 0 0 42.6 40;" xml:space="preserve">
<style type="text/css">
	.st0{fill:#F68C1F;}
	.st1{fill:#333333;}
	.st2{fill:#FFFFFF;}
</style>
<g>
	<path class="st2" d="M35.1,39.9c-2,0-4,0-6-0.1c0-3.8,0-7.7,0-11.5c0-2.5-1.6-4.3-3.8-4.3c-2.3-0.1-4.1,1.7-4.1,4.2
		c-0.1,3.9,0,7.7-0.1,11.6c-4.6,0-9.3,0-13.9,0c-1.4-0.4-2-1.4-2-2.8c0-5,0-10.1,0-15.1c0-0.5,0.2-0.8,0.5-1.1
		c4.8-4.7,9.5-9.5,14.2-14.2c0.9-0.9,1.6-0.9,2.5,0c4.8,4.8,9.6,9.5,14.3,14.3c0.3,0.3,0.4,0.7,0.4,1.2c0,5,0,10.1,0,15.1
		C37.2,38.6,36.5,39.4,35.1,39.9z"/>
	<path class="st2" d="M0,19.7c0-0.4,0-0.8,0-1.3c0.1-0.5,0.5-0.9,0.9-1.2c4.9-4.9,9.9-9.9,14.8-14.8c3.2-3.2,7.6-3.3,10.9-0.1
		c1.7,1.6,3.3,3.3,5.2,5.2c0-1.3,0-2.2,0-3.1c0-1.3,0.5-1.7,1.7-1.7c0.7,0,1.4,0,2,0c1.1,0,1.6,0.5,1.6,1.6c0,2.4,0,4.9,0,7.3
		c0,0.9,0.2,1.6,0.9,2.2c1.2,1.1,2.4,2.3,3.6,3.5c1.1,1.1,1.2,2.4,0.2,3.3c-0.9,0.8-2,0.7-3.1-0.4c-4.8-4.8-9.6-9.6-14.4-14.4
		c-2.3-2.3-3.8-2.3-6.2,0c-4.8,4.8-9.7,9.7-14.5,14.5C2.2,21.6,0.8,21.4,0,19.7z"/>
</g>
</svg>
