<?xml version="1.0" encoding="utf-8"?>
<!-- Generator: Adobe Illustrator 22.0.1, SVG Export Plug-In . SVG Version: 6.00 Build 0)  -->
<svg version="1.1" id="Layer_1" xmlns="http://www.w3.org/2000/svg" xmlns:xlink="http://www.w3.org/1999/xlink" x="0px" y="0px"
	 viewBox="0 0 25 25" style="enable-background:new 0 0 25 25;" xml:space="preserve">
<style type="text/css">
	.st0{fill:#313E59;}
	.st1{fill:#172136;}
	.st2{fill:#FFFFFF;}
</style>
<g>
	<path class="st2" d="M25,12.5C25,19.5,19.4,25,12.4,25C5.5,25,0,19.4,0,12.4C0,5.5,5.7,0,12.6,0C19.4,0,25,5.6,25,12.5z M12.5,19.5
		C12.5,19.5,12.5,19.5,12.5,19.5c1.9,0,3.9,0,5.8,0c1,0,1.5-0.8,1.2-1.7c-0.6-1.5-1.7-2.7-3.3-3.2c-2.4-0.8-4.9-0.8-7.3,0
		c-1.5,0.5-2.6,1.5-3.2,3c-0.5,1.2,0,1.9,1.2,1.9C8.7,19.5,10.6,19.5,12.5,19.5z M12.5,13.2c2.4,0,4.3-1.9,4.3-4.2
		c0-2.4-1.9-4.3-4.3-4.3c-2.3,0-4.2,1.9-4.2,4.3C8.3,11.3,10.2,13.2,12.5,13.2z"/>
</g>
</svg>
