<?xml version="1.0" encoding="utf-8"?>
<!-- Generator: Adobe Illustrator 22.0.1, SVG Export Plug-In . SVG Version: 6.00 Build 0)  -->
<svg version="1.1" id="Layer_1" xmlns="http://www.w3.org/2000/svg" xmlns:xlink="http://www.w3.org/1999/xlink" x="0px" y="0px"
	 viewBox="0 0 25 25" style="enable-background:new 0 0 25 25;" xml:space="preserve">
<style type="text/css">
	.st0{fill:#313E59;}
	.st1{fill:#172136;}
	.st2{fill:#FFFFFF;}
</style>
<g transform="translate(0.000000,1280.000000) scale(0.100000,-0.100000)">
	<path class="st2" d="M91.2,12797.7c-10.4-2.8-20.1-6.9-29.3-12.3c-1.9-1.1-4-2.4-4.6-2.8l-1-0.7l0.1-1.4c0.1-0.7,0.8-5.3,1.6-10.1
		c0.8-4.8,1.6-9.4,1.7-10.2l0.2-1.5l-2.7-2.3c-5.7-4.8-12.4-11.7-16.3-16.9c-0.8-1-1.5-1.8-1.6-1.9c-0.1,0-5.3,0.7-11.6,1.6
		c-6.2,0.9-11.4,1.5-11.5,1.4c-0.4-0.2-3.3-5.5-4.9-8.7c-2.8-5.6-5.8-12.9-7.6-18.8c-0.9-3-2.6-9.5-2.7-10.6l-0.1-0.8l9.4-6.7
		c5.2-3.7,9.4-6.8,9.5-6.9c0-0.1-0.1-1.9-0.3-3.9c-0.2-2.1-0.4-5-0.4-6.5c-0.1-2.9,0.3-11.8,0.8-16.4l0.3-2.7l-9.3-7l-9.3-7l0.1-0.9
		c0.2-1.3,1.9-7.1,3-10.5c2.1-6.1,4.7-12,7.8-17.9c1.7-3.1,4.9-8.5,5.4-9c0.2-0.2,0.8-0.2,3.5,0.3c12,2.1,18.7,3.2,19.2,3.2
		c0.5,0,0.9-0.4,3.3-3.1c4.9-5.8,11.1-11.7,16.3-15.7c1.1-0.9,2.1-1.7,2.1-1.8c0-0.1-0.7-5.3-1.6-11.6c-0.9-6.3-1.5-11.5-1.4-11.6
		c0.2-0.3,5.6-3.3,8.9-5c4.4-2.2,11.7-5.2,16.4-6.7c4-1.3,11.5-3.4,12.8-3.5l0.8-0.1l6.7,9.4c3.7,5.2,6.8,9.4,6.9,9.5
		c0.1,0,1.9-0.1,3.9-0.3c2.1-0.2,5-0.4,6.5-0.4c3.1-0.1,14,0.4,17,0.9l2,0.3l7-9.3c3.8-5.1,7.1-9.3,7.2-9.4
		c0.3-0.2,6.7,1.6,10.1,2.7c8.3,2.8,17.1,6.9,24.5,11.4c4.1,2.5,3.8,2.2,3.6,3.8c-0.1,0.8-0.9,5.2-1.7,9.9
		c-0.8,4.7-1.5,9.2-1.7,10.1l-0.2,1.6l2.3,2c6.6,5.6,12.2,11.4,17.2,17.9l0.9,1.2l11.1-1.5c6.1-0.8,11.4-1.6,11.6-1.6
		c0.5,0,0.7,0.3,1.6,1.8c3.6,5.8,8.1,16,10.6,23.5c1.5,4.6,3.4,11.4,3.5,12.8l0.1,0.8l-8.9,6.4c-4.9,3.5-9.2,6.5-9.5,6.8l-0.5,0.4
		l0.3,3.9c0.2,2.1,0.4,5.2,0.4,6.7c0.1,2.9-0.3,11.8-0.8,16.4l-0.3,2.7l9.3,7l9.3,7l-0.1,0.9c-0.2,1.3-1.9,7.1-3,10.5
		c-2.1,6.2-4.7,12-8,18.1c-1.7,3.3-4.8,8.3-5.3,8.8c-0.2,0.2-2,0-11.3-1.6c-6.1-1-11.2-1.9-11.5-1.9c-0.3,0-1.1,0.7-2.8,2.8
		c-4.9,5.8-11.7,12.4-16.8,16.2c-1,0.8-1.9,1.5-1.9,1.6c0,0.1,0.7,5.3,1.6,11.6c0.9,6.2,1.5,11.4,1.4,11.5c-0.2,0.3-5.4,3.3-8.5,4.8
		c-5.3,2.7-13.1,5.8-19,7.7c-3,0.9-9.5,2.6-10.6,2.7l-0.8,0.1l-6.7-9.4c-3.8-5.3-6.9-9.4-7.1-9.5c-0.2,0-1.2,0.1-2.3,0.2
		c-6.4,0.7-13.5,0.7-20.1,0.1c-2.8-0.2-5.5-0.5-6-0.5l-0.9-0.1l-7,9.3c-3.9,5.1-7.2,9.3-7.3,9.3
		C94.2,12798.5,92.8,12798.1,91.2,12797.7z M128.5,12738.7c24.8-1.5,46.4-16.8,55.7-39.7c2.6-6.5,4-12.9,4.5-20.3
		c0.6-10.3-0.9-19.1-4.9-28.5c-2.5-6-6-11.7-10.2-16.6c-9.7-11.3-22.8-18.8-37.8-21.5c-3.4-0.6-10.6-1-14.1-0.8
		c-22.2,1.3-41.7,13.5-52.4,32.8c-4.7,8.5-7.2,17.2-7.8,27.2c-0.6,10.4,1,19.6,5,28.9c8.5,19.8,26.3,33.8,47.6,37.6
		C117.2,12738.4,125.1,12738.9,128.5,12738.7z"/>
</g>
</svg>
